<!-- Ikon Ebook sederhana untuk Facebook App -->
<!-- Simpan sebagai app-icon.svg, lalu convert ke PNG 1024x1024 -->
<svg width="1024" height="1024" viewBox="0 0 1024 1024" xmlns="http://www.w3.org/2000/svg">
  <!-- Background -->
  <rect width="1024" height="1024" fill="#2563eb" rx="128"/>
  
  <!-- Book Icon -->
  <g transform="translate(312, 256)">
    <!-- Book Cover -->
    <rect x="0" y="0" width="400" height="512" fill="#ffffff" rx="24"/>
    
    <!-- Book Pages -->
    <rect x="20" y="20" width="360" height="472" fill="#f8fafc" rx="16"/>
    
    <!-- Lines representing text -->
    <rect x="60" y="120" width="280" height="8" fill="#94a3b8" rx="4"/>
    <rect x="60" y="150" width="320" height="8" fill="#94a3b8" rx="4"/>
    <rect x="60" y="180" width="240" height="8" fill="#94a3b8" rx="4"/>
    <rect x="60" y="210" width="300" height="8" fill="#94a3b8" rx="4"/>
    
    <rect x="60" y="270" width="260" height="8" fill="#94a3b8" rx="4"/>
    <rect x="60" y="300" width="310" height="8" fill="#94a3b8" rx="4"/>
    <rect x="60" y="330" width="220" height="8" fill="#94a3b8" rx="4"/>
    
    <!-- Download arrow -->
    <g transform="translate(160, 380)">
      <circle cx="40" cy="40" r="36" fill="#10b981"/>
      <path d="M40 20 L40 52 M28 40 L40 52 L52 40" stroke="#ffffff" stroke-width="4" fill="none" stroke-linecap="round" stroke-linejoin="round"/>
    </g>
  </g>
</svg>
